<svg aria-hidden="true" style="position: absolute; width: 0; height: 0; overflow: hidden;" version="1.1" xmlns="http://www.w3.org/2000/svg" xmlns:xlink="http://www.w3.org/1999/xlink">
<defs>
<symbol id="icon-chocolate" viewBox="0 0 32 32">
<path fill="#fcf1e0" style="fill: var(--color1, #fcf1e0)" d="M3.944 20.076l10.777-17.424 0.64-0.674 8.236 5.491 0.056 3.314 2.010 3.28-8.88 14.077-12.839-8.063z"></path>
<path fill="none" stroke="#fd9222" style="stroke: var(--color2, #fd9222)" stroke-linejoin="round" stroke-linecap="round" stroke-miterlimit="4" stroke-width="2.6667" d="M21.635 23.88l-14.185-8.864M11.361 8.599l14.185 8.864M10.63 25.864l11.736-19.25M27.176 14.789c-3.040-1.899-4.234-3.384-2.278-6.592l-9.626-6.015-11.736 19.25 14.186 8.864 9.454-15.507z"></path>
</symbol>
<symbol id="icon-spoon" viewBox="0 0 32 32">
<path fill="#fd9222" style="fill: var(--color2, #fd9222)" d="M15.373 13.835c-0.894-1.086-1.345-2.418-1.345-3.751 0-4.941 5.921-9.877 11.842-9.877 3.269 0 5.921 2.653 5.921 5.922 0 5.922-4.934 11.845-9.881 11.845-1.332 0-2.665-0.45-3.75-1.345l-14.581 14.584c-0.771 0.771-2.023 0.771-2.794 0s-0.771-2.024 0-2.795l14.587-14.584z"></path>
</symbol>
<symbol id="icon-s_in_circle" viewBox="0 0 32 32">
<path fill="#fd9222" style="fill: var(--color2, #fd9222)" d="M16 0.762c-8.381 0-15.238 6.857-15.238 15.238s6.857 15.238 15.238 15.238c8.381 0 15.238-6.857 15.238-15.238s-6.857-15.238-15.238-15.238zM16 28.191c-6.705 0-12.19-5.486-12.19-12.19s5.486-12.191 12.19-12.191c6.705 0 12.19 5.486 12.19 12.191s-5.486 12.19-12.191 12.19z"></path>
<path fill="#fd9222" style="fill: var(--color2, #fd9222)" d="M17.981 14.476h-3.962c-0.762 0-1.371-0.61-1.371-1.371s0.61-1.371 1.371-1.371h5.638c0.914 0 1.524-0.61 1.524-1.524s-0.61-1.524-1.524-1.524h-2.133v-1.371c0-0.914-0.61-1.524-1.524-1.524s-1.524 0.61-1.524 1.524v1.371h-0.457c-2.438 0-4.419 1.981-4.419 4.419s1.981 4.419 4.419 4.419h3.809c0.762 0 1.371 0.61 1.371 1.371s-0.61 1.371-1.371 1.371h-5.638c-0.914 0-1.524 0.61-1.524 1.524s0.61 1.524 1.524 1.524h2.286v1.371c0 0.914 0.61 1.524 1.524 1.524s1.524-0.61 1.524-1.524v-1.371h0.457c2.438 0 4.419-1.981 4.419-4.419s-1.981-4.419-4.419-4.419z"></path>
</symbol>
<symbol id="icon-opeb_chocolate_bar" viewBox="0 0 31 32">
<path fill="#000" style="fill: var(--color3, #000)" d="M13.045 0.456l8.306 8.316 0.088-0.088c0.174-0.17 0.407-0.267 0.65-0.27s0.478 0.089 0.656 0.255l0.963 0.963c0.337 0.337 0.348 0.85 0.092 1.207l-0.004 0.008-0.158 0.212 6.797 6.797c0.607 0.607 0.607 1.578 0 2.185l-10.406 10.406c-0.607 0.607-1.578 0.607-2.185 0l-4.907-4.907c-0.081 0.103-0.184 0.187-0.3 0.247s-0.244 0.095-0.375 0.103c-0.131 0.007-0.262-0.013-0.384-0.060s-0.234-0.119-0.326-0.212l-2.869-2.869c-0.17-0.174-0.267-0.407-0.27-0.65s0.089-0.478 0.255-0.656l0.007-0.008 0.085-0.084-8.306-8.306c-0.607-0.607-0.607-1.578 0-2.185l10.405-10.405c0.607-0.607 1.578-0.607 2.185 0v0.001zM20.308 9.813l-1.938-1.937c-0.061-0.063-0.134-0.113-0.214-0.147s-0.167-0.052-0.255-0.052c-0.087 0-0.174 0.018-0.255 0.052s-0.154 0.084-0.214 0.147l-3.95 3.95c-0.063 0.062-0.112 0.136-0.146 0.217s-0.051 0.169-0.051 0.257 0.017 0.176 0.051 0.257c0.034 0.081 0.084 0.155 0.146 0.217l1.93 1.93 0.673-0.673-1.727-1.727 3.542-3.553 1.731 1.737 0.676-0.676zM14.707 15.41l-1.935-1.935c-0.061-0.063-0.134-0.113-0.214-0.147s-0.167-0.052-0.255-0.052c-0.088 0-0.174 0.018-0.255 0.052s-0.153 0.084-0.214 0.147l-3.961 3.961c-0.265 0.254-0.265 0.673 0 0.938l1.933 1.933 0.68-0.68-1.732-1.726 3.553-3.542 1.726 1.725 0.675-0.674zM7.528 6.834l3.95 3.95c0.265 0.265 0.684 0.265 0.938-0.011l3.95-3.95c0.063-0.060 0.113-0.132 0.147-0.211s0.052-0.165 0.052-0.252h0.011c0-0.166-0.066-0.342-0.199-0.474l-3.95-3.95c-0.062-0.063-0.136-0.113-0.217-0.147s-0.169-0.051-0.257-0.051c-0.088 0-0.176 0.018-0.257 0.051s-0.155 0.084-0.217 0.147l-3.95 3.961c-0.265 0.254-0.265 0.673 0 0.938zM1.933 12.428l3.95 3.95c0.265 0.265 0.684 0.265 0.938 0l3.95-3.95c0.064-0.061 0.115-0.135 0.149-0.216s0.051-0.17 0.050-0.258h0.011c0-0.177-0.066-0.342-0.199-0.474l-3.95-3.95c-0.061-0.063-0.134-0.113-0.214-0.147s-0.167-0.052-0.255-0.052c-0.087 0-0.174 0.018-0.255 0.052s-0.153 0.084-0.214 0.147l-3.961 3.961c-0.265 0.254-0.265 0.673 0 0.938zM9.583 22.088l2.606 2.607 10.633-14.389-0.723-0.723-12.516 12.504z"></path>
<path fill="#fd9222" style="fill: var(--color2, #fd9222)" d="M13.045 0.456l8.306 8.316 0.088-0.088c0.174-0.17 0.407-0.267 0.65-0.27s0.478 0.089 0.656 0.255l0.963 0.963c0.337 0.337 0.348 0.85 0.092 1.207l-0.004 0.008-0.158 0.212 6.797 6.797c0.607 0.607 0.607 1.578 0 2.185l-10.406 10.406c-0.607 0.607-1.578 0.607-2.185 0l-4.907-4.907c-0.081 0.103-0.184 0.187-0.3 0.247s-0.244 0.095-0.375 0.103c-0.131 0.007-0.262-0.013-0.384-0.060s-0.234-0.119-0.326-0.212l-2.869-2.869c-0.17-0.174-0.267-0.407-0.27-0.65s0.089-0.478 0.255-0.656l0.007-0.008 0.085-0.084-8.306-8.306c-0.607-0.607-0.607-1.578 0-2.185l10.405-10.405c0.607-0.607 1.578-0.607 2.185 0v0.001zM20.308 9.813l-1.938-1.937c-0.061-0.063-0.134-0.113-0.214-0.147s-0.167-0.052-0.255-0.052c-0.087 0-0.174 0.018-0.255 0.052s-0.154 0.084-0.214 0.147l-3.95 3.95c-0.063 0.062-0.112 0.136-0.146 0.217s-0.051 0.169-0.051 0.257 0.017 0.176 0.051 0.257c0.034 0.081 0.084 0.155 0.146 0.217l1.93 1.93 0.673-0.673-1.727-1.727 3.542-3.553 1.731 1.737 0.676-0.676zM14.707 15.41l-1.935-1.935c-0.061-0.063-0.134-0.113-0.214-0.147s-0.167-0.052-0.255-0.052c-0.088 0-0.174 0.018-0.255 0.052s-0.153 0.084-0.214 0.147l-3.961 3.961c-0.265 0.254-0.265 0.673 0 0.938l1.933 1.933 0.68-0.68-1.732-1.726 3.553-3.542 1.726 1.725 0.675-0.674zM7.528 6.834l3.95 3.95c0.265 0.265 0.684 0.265 0.938-0.011l3.95-3.95c0.063-0.060 0.113-0.132 0.147-0.211s0.052-0.165 0.052-0.252h0.011c0-0.166-0.066-0.342-0.199-0.474l-3.95-3.95c-0.062-0.063-0.136-0.113-0.217-0.147s-0.169-0.051-0.257-0.051c-0.088 0-0.176 0.018-0.257 0.051s-0.155 0.084-0.217 0.147l-3.95 3.961c-0.265 0.254-0.265 0.673 0 0.938zM1.933 12.428l3.95 3.95c0.265 0.265 0.684 0.265 0.938 0l3.95-3.95c0.064-0.061 0.115-0.135 0.149-0.216s0.051-0.17 0.050-0.258h0.011c0-0.177-0.066-0.342-0.199-0.474l-3.95-3.95c-0.061-0.063-0.134-0.113-0.214-0.147s-0.167-0.052-0.255-0.052c-0.087 0-0.174 0.018-0.255 0.052s-0.153 0.084-0.214 0.147l-3.961 3.961c-0.265 0.254-0.265 0.673 0 0.938zM9.583 22.088l2.606 2.607 10.633-14.389-0.723-0.723-12.516 12.504z"></path>
</symbol>
<symbol id="icon-burger" viewBox="0 0 45 32">
<path stroke-linejoin="round" stroke-linecap="round" stroke-miterlimit="4" stroke-width="4" d="M3.2 16h38.4M3.2 3.2h38.4M3.2 28.8h38.4"></path>
</symbol>
<symbol id="icon-inst" viewBox="0 0 32 32">
<path stroke-linejoin="round" stroke-linecap="round" stroke-miterlimit="4" stroke-width="2.6667" d="M22.667 2.667h-13.333c-3.682 0-6.667 2.985-6.667 6.667v13.333c0 3.682 2.985 6.667 6.667 6.667h13.333c3.682 0 6.667-2.985 6.667-6.667v-13.333c0-3.682-2.985-6.667-6.667-6.667z"></path>
<path stroke-linejoin="round" stroke-linecap="round" stroke-miterlimit="4" stroke-width="2.6667" d="M21.334 15.16c0.165 1.11-0.025 2.243-0.542 3.239s-1.334 1.803-2.336 2.307c-1.002 0.504-2.138 0.68-3.245 0.502s-2.131-0.701-2.924-1.494-1.316-1.816-1.494-2.924c-0.178-1.108-0.003-2.243 0.502-3.245s1.312-1.819 2.308-2.336 2.129-0.706 3.239-0.542c1.132 0.168 2.18 0.695 2.989 1.504s1.337 1.857 1.504 2.989z"></path>
<path stroke-linejoin="round" stroke-linecap="round" stroke-miterlimit="4" stroke-width="2.6667" d="M23.333 8.667h0.013"></path>
</symbol>
<symbol id="icon-twitter" viewBox="0 0 32 32">
<path stroke-linejoin="round" stroke-linecap="round" stroke-miterlimit="4" stroke-width="2.6667" d="M30.667 4c-1.277 0.901-2.691 1.589-4.187 2.040-0.803-0.923-1.87-1.578-3.057-1.875s-2.437-0.222-3.58 0.214c-1.143 0.436-2.125 1.213-2.812 2.226s-1.047 2.212-1.031 3.435v1.333c-2.343 0.061-4.665-0.459-6.759-1.513s-4.561-3.563-5.908-5.481c0 0-4.667 12.954 7.333 18.287-2.746 1.864-6.017 2.799-9.333 2.667 12 6.667 26.667 0 26.667-15.333-0.001-0.371-0.037-0.742-0.107-1.107 1.361-1.342 2.321-3.036 2.773-4.893z"></path>
</symbol>
<symbol id="icon-x" viewBox="0 0 32 32">
<path stroke-linejoin="round" stroke-linecap="round" stroke-miterlimit="4" stroke-width="2.9091" d="M24 8l-16 16"></path>
<path stroke-linejoin="round" stroke-linecap="round" stroke-miterlimit="4" stroke-width="2.9091" d="M8 8l16 16"></path>
</symbol>
<symbol id="icon-check" viewBox="0 0 56 32">
<path d="M30.605 21.134c-0.341 0.344-0.746 0.616-1.193 0.803s-0.926 0.282-1.41 0.282-0.963-0.096-1.41-0.282c-0.447-0.186-0.852-0.459-1.193-0.803l-16.793-16.83c-0.341-0.344-0.746-0.616-1.193-0.803s-0.926-0.282-1.41-0.282-0.963 0.096-1.41 0.282c-0.447 0.186-0.852 0.459-1.193 0.803-0.683 0.687-1.066 1.616-1.066 2.585s0.383 1.898 1.066 2.585l16.83 16.83c2.063 2.060 4.858 3.217 7.773 3.217s5.711-1.157 7.773-3.217l16.83-16.83c0.678-0.683 1.060-1.605 1.064-2.567 0.003-0.483-0.090-0.961-0.272-1.408s-0.451-0.853-0.791-1.196c-0.341-0.344-0.746-0.616-1.193-0.803s-0.926-0.282-1.41-0.282-0.963 0.096-1.41 0.282c-0.447 0.186-0.852 0.459-1.193 0.803l-16.793 16.83z"></path>
</symbol>
<symbol id="ukr" viewBox="0 0 43 32">
<path fill="#ffd700" style="fill: var(--color1, #ffd700)" d="M42.443 0.523h-42.119v31.344h42.119v-31.344z"></path>
<path fill="#0057b7" style="fill: var(--color2, #0057b7)" d="M0.324 0.523h42.119v15.672h-42.119v-15.672z"></path>
</symbol>
<symbol id="text-tel" viewBox="0 0 96 32">
<path d="M7.959 24.325v-18.021h3.456v18.021h-3.456zM0.471 16.96v-3.25h18.432v3.25h-18.432zM30.814 30.043c-2.030 0-4.005-0.315-5.925-0.946-1.893-0.631-3.442-1.481-4.649-2.551l1.893-3.25c0.96 0.905 2.208 1.646 3.744 2.222s3.182 0.864 4.937 0.864c2.139 0 3.799-0.453 4.978-1.358 1.207-0.933 1.81-2.181 1.81-3.744 0-1.509-0.576-2.715-1.728-3.621-1.125-0.933-2.921-1.399-5.39-1.399h-2.304v-2.88l8.558-10.533 0.576 1.646h-15.758v-3.579h19.008v2.798l-8.517 10.491-2.139-1.275h1.358c3.483 0 6.089 0.782 7.817 2.345 1.755 1.563 2.633 3.552 2.633 5.966 0 1.618-0.398 3.099-1.193 4.443s-2.002 2.414-3.621 3.209c-1.591 0.768-3.621 1.152-6.089 1.152zM55.963 30.043c-2.331 0-4.347-0.343-6.048-1.029s-3.017-1.659-3.95-2.921c-0.933-1.289-1.399-2.798-1.399-4.526 0-1.701 0.439-3.141 1.317-4.32 0.905-1.207 2.208-2.112 3.909-2.715 1.701-0.631 3.758-0.946 6.171-0.946s4.471 0.315 6.171 0.946c1.728 0.603 3.045 1.509 3.95 2.715s1.358 2.647 1.358 4.32c0 1.728-0.466 3.237-1.399 4.526-0.933 1.262-2.263 2.235-3.991 2.921s-3.758 1.029-6.089 1.029zM55.963 26.711c2.304 0 4.101-0.466 5.39-1.399 1.317-0.96 1.975-2.249 1.975-3.867 0-1.591-0.658-2.839-1.975-3.744-1.289-0.933-3.086-1.399-5.39-1.399-2.277 0-4.059 0.466-5.349 1.399-1.289 0.905-1.934 2.153-1.934 3.744 0 1.618 0.645 2.907 1.934 3.867 1.289 0.933 3.072 1.399 5.349 1.399zM55.963 15.808c-2.194 0-4.059-0.288-5.595-0.864-1.536-0.603-2.715-1.454-3.538-2.551-0.823-1.125-1.234-2.455-1.234-3.991 0-1.618 0.425-3.003 1.275-4.155 0.878-1.179 2.098-2.085 3.662-2.715s3.374-0.946 5.431-0.946c2.085 0 3.909 0.315 5.472 0.946s2.784 1.536 3.662 2.715c0.878 1.152 1.317 2.537 1.317 4.155 0 1.536-0.411 2.866-1.234 3.991-0.823 1.097-2.016 1.947-3.579 2.551-1.563 0.576-3.442 0.864-5.637 0.864zM55.963 13.175c2.002 0 3.566-0.411 4.69-1.234 1.152-0.823 1.728-1.947 1.728-3.374 0-1.454-0.59-2.592-1.769-3.415s-2.729-1.234-4.649-1.234c-1.92 0-3.456 0.411-4.608 1.234-1.125 0.823-1.687 1.961-1.687 3.415 0 1.426 0.549 2.551 1.646 3.374 1.125 0.823 2.674 1.234 4.649 1.234zM82.153 30.043c-2.249 0-4.265-0.576-6.048-1.728-1.755-1.152-3.154-2.825-4.197-5.019-1.015-2.194-1.522-4.855-1.522-7.982s0.507-5.787 1.522-7.982c1.042-2.194 2.441-3.867 4.197-5.019 1.783-1.152 3.799-1.728 6.048-1.728 2.222 0 4.224 0.576 6.007 1.728s3.182 2.825 4.197 5.019c1.015 2.194 1.522 4.855 1.522 7.982s-0.507 5.787-1.522 7.982c-1.015 2.194-2.414 3.867-4.197 5.019s-3.785 1.728-6.007 1.728zM82.153 26.382c1.509 0 2.825-0.411 3.95-1.234 1.152-0.823 2.043-2.057 2.674-3.703 0.658-1.646 0.987-3.689 0.987-6.13s-0.329-4.485-0.987-6.13c-0.631-1.646-1.522-2.88-2.674-3.703-1.125-0.823-2.441-1.234-3.95-1.234s-2.839 0.411-3.991 1.234c-1.152 0.823-2.057 2.057-2.715 3.703-0.631 1.646-0.946 3.689-0.946 6.13s0.315 4.485 0.946 6.13c0.658 1.646 1.563 2.88 2.715 3.703s2.482 1.234 3.991 1.234z"></path>
</symbol>
<symbol id="mc" viewBox="0 0 49 32">
<path fill="#fafafa" style="fill: var(--color1, #fafafa)" d="M6.095 0.762h36.571c2.946 0 5.333 2.388 5.333 5.333v19.81c0 2.946-2.388 5.333-5.333 5.333h-36.571c-2.946 0-5.333-2.388-5.333-5.333v-19.81c0-2.946 2.388-5.333 5.333-5.333z"></path>
<path fill="#ed0006" style="fill: var(--color2, #ed0006)" d="M24.381 23.29c-1.771 1.462-4.068 2.345-6.578 2.345-5.601 0-10.141-4.396-10.141-9.818s4.54-9.818 10.141-9.818c2.51 0 4.807 0.883 6.578 2.345 1.771-1.462 4.068-2.345 6.578-2.345 5.601 0 10.141 4.395 10.141 9.818s-4.54 9.818-10.141 9.818c-2.51 0-4.807-0.883-6.578-2.345z"></path>
<path fill="#f9a000" style="fill: var(--color3, #f9a000)" d="M24.381 23.29c2.18-1.801 3.563-4.48 3.563-7.472s-1.383-5.672-3.563-7.472c1.771-1.462 4.068-2.345 6.578-2.345 5.601 0 10.141 4.395 10.141 9.818s-4.54 9.818-10.141 9.818c-2.51 0-4.807-0.883-6.578-2.345z"></path>
<path fill="#ff5e00" style="fill: var(--color4, #ff5e00)" d="M24.381 23.29c2.18-1.801 3.563-4.48 3.563-7.472s-1.383-5.671-3.563-7.472c-2.18 1.801-3.563 4.48-3.563 7.472s1.383 5.672 3.563 7.472z"></path>
<path fill="none" stroke="#fafafa" style="stroke: var(--color1, #fafafa)" stroke-linejoin="miter" stroke-linecap="butt" stroke-miterlimit="4" stroke-width="1.5238" d="M6.095 0.762h36.571c2.946 0 5.333 2.388 5.333 5.333v19.81c0 2.946-2.388 5.333-5.333 5.333h-36.571c-2.946 0-5.333-2.388-5.333-5.333v-19.81c0-2.946 2.388-5.333 5.333-5.333z"></path>
</symbol>
<symbol id="slider" viewBox="0 0 199 32">
<path fill="#fd9222" style="fill: var(--color1, #fd9222)" d="M54.154 0h-36.923c-8.837 0-16 7.163-16 16s7.163 16 16 16h36.923c8.837 0 16-7.163 16-16s-7.163-16-16-16z"></path>
<path fill="#111" style="fill: var(--color2, #111)" opacity="0.1" d="M118.154 32c8.837 0 16-7.163 16-16s-7.163-16-16-16-16 7.163-16 16c0 8.837 7.163 16 16 16z"></path>
<path fill="#111" style="fill: var(--color2, #111)" opacity="0.1" d="M182.154 32c8.837 0 16-7.163 16-16s-7.163-16-16-16-16 7.163-16 16c0 8.837 7.163 16 16 16z"></path>
</symbol>
<symbol id="slider" viewBox="0 0 199 32">
<path fill="#fd9222" style="fill: var(--color1, #fd9222)" d="M54.154 0h-36.923c-8.837 0-16 7.163-16 16s7.163 16 16 16h36.923c8.837 0 16-7.163 16-16s-7.163-16-16-16z"></path>
<path fill="#111" style="fill: var(--color2, #111)" opacity="0.1" d="M118.154 32c8.837 0 16-7.163 16-16s-7.163-16-16-16-16 7.163-16 16c0 8.837 7.163 16 16 16z"></path>
<path fill="#111" style="fill: var(--color2, #111)" opacity="0.1" d="M182.154 32c8.837 0 16-7.163 16-16s-7.163-16-16-16-16 7.163-16 16c0 8.837 7.163 16 16 16z"></path>
</symbol>
<symbol id="icon-tel" viewBox="0 0 96 32">
<path d="M7.959 24.325v-18.021h3.456v18.021h-3.456zM0.471 16.96v-3.25h18.432v3.25h-18.432zM30.814 30.043c-2.030 0-4.005-0.315-5.925-0.946-1.893-0.631-3.442-1.481-4.649-2.551l1.893-3.25c0.96 0.905 2.208 1.646 3.744 2.222s3.182 0.864 4.937 0.864c2.139 0 3.799-0.453 4.978-1.358 1.207-0.933 1.81-2.181 1.81-3.744 0-1.509-0.576-2.715-1.728-3.621-1.125-0.933-2.921-1.399-5.39-1.399h-2.304v-2.88l8.558-10.533 0.576 1.646h-15.758v-3.579h19.008v2.798l-8.517 10.491-2.139-1.275h1.358c3.483 0 6.089 0.782 7.817 2.345 1.755 1.563 2.633 3.552 2.633 5.966 0 1.618-0.398 3.099-1.193 4.443s-2.002 2.414-3.621 3.209c-1.591 0.768-3.621 1.152-6.089 1.152zM55.963 30.043c-2.331 0-4.347-0.343-6.048-1.029s-3.017-1.659-3.95-2.921c-0.933-1.289-1.399-2.798-1.399-4.526 0-1.701 0.439-3.141 1.317-4.32 0.905-1.207 2.208-2.112 3.909-2.715 1.701-0.631 3.758-0.946 6.171-0.946s4.471 0.315 6.171 0.946c1.728 0.603 3.045 1.509 3.95 2.715s1.358 2.647 1.358 4.32c0 1.728-0.466 3.237-1.399 4.526-0.933 1.262-2.263 2.235-3.991 2.921s-3.758 1.029-6.089 1.029zM55.963 26.711c2.304 0 4.101-0.466 5.39-1.399 1.317-0.96 1.975-2.249 1.975-3.867 0-1.591-0.658-2.839-1.975-3.744-1.289-0.933-3.086-1.399-5.39-1.399-2.277 0-4.059 0.466-5.349 1.399-1.289 0.905-1.934 2.153-1.934 3.744 0 1.618 0.645 2.907 1.934 3.867 1.289 0.933 3.072 1.399 5.349 1.399zM55.963 15.808c-2.194 0-4.059-0.288-5.595-0.864-1.536-0.603-2.715-1.454-3.538-2.551-0.823-1.125-1.234-2.455-1.234-3.991 0-1.618 0.425-3.003 1.275-4.155 0.878-1.179 2.098-2.085 3.662-2.715s3.374-0.946 5.431-0.946c2.085 0 3.909 0.315 5.472 0.946s2.784 1.536 3.662 2.715c0.878 1.152 1.317 2.537 1.317 4.155 0 1.536-0.411 2.866-1.234 3.991-0.823 1.097-2.016 1.947-3.579 2.551-1.563 0.576-3.442 0.864-5.637 0.864zM55.963 13.175c2.002 0 3.566-0.411 4.69-1.234 1.152-0.823 1.728-1.947 1.728-3.374 0-1.454-0.59-2.592-1.769-3.415s-2.729-1.234-4.649-1.234c-1.92 0-3.456 0.411-4.608 1.234-1.125 0.823-1.687 1.961-1.687 3.415 0 1.426 0.549 2.551 1.646 3.374 1.125 0.823 2.674 1.234 4.649 1.234zM82.153 30.043c-2.249 0-4.265-0.576-6.048-1.728-1.755-1.152-3.154-2.825-4.197-5.019-1.015-2.194-1.522-4.855-1.522-7.982s0.507-5.787 1.522-7.982c1.042-2.194 2.441-3.867 4.197-5.019 1.783-1.152 3.799-1.728 6.048-1.728 2.222 0 4.224 0.576 6.007 1.728s3.182 2.825 4.197 5.019c1.015 2.194 1.522 4.855 1.522 7.982s-0.507 5.787-1.522 7.982c-1.015 2.194-2.414 3.867-4.197 5.019s-3.785 1.728-6.007 1.728zM82.153 26.382c1.509 0 2.825-0.411 3.95-1.234 1.152-0.823 2.043-2.057 2.674-3.703 0.658-1.646 0.987-3.689 0.987-6.13s-0.329-4.485-0.987-6.13c-0.631-1.646-1.522-2.88-2.674-3.703-1.125-0.823-2.441-1.234-3.95-1.234s-2.839 0.411-3.991 1.234c-1.152 0.823-2.057 2.057-2.715 3.703-0.631 1.646-0.946 3.689-0.946 6.13s0.315 4.485 0.946 6.13c0.658 1.646 1.563 2.88 2.715 3.703s2.482 1.234 3.991 1.234z"></path>
</symbol>
</defs>
</svg>
